# xmcd CD database file
#
# Track frame offsets:
#	150
#	19896
#	40742
#	59093
#	82851
#
# Disc length: 1300 seconds
#
# Revision: 0
# Processed by: cddbd v1.5.2PL0 Copyright (c) Steve Scherf et al.
# Submitted via: CDex 1.78
#
DISCID=37051205
DTITLE=Ann-Marita - The Purple Ribbon Sessions
DYEAR=2014
DGENRE=Country
TTITLE0=Ann-Marita - California Sun
TTITLE1=Ann-Marita - Karoline With a K
TTITLE2=Ann-Marita - New Plan
TTITLE3=Ann-Marita - Wrecking Ball
TTITLE4=Ann-Marita - Remember Me Pretty
EXTD=YEAR: 2014
EXTT0=
EXTT1=
EXTT2=
EXTT3=
EXTT4=
PLAYORDER=
